<?xml version="1.0" standalone="no"?>
<!DOCTYPE svg PUBLIC "-//W3C//DTD SVG 20010904//EN"
 "http://www.w3.org/TR/2001/REC-SVG-20010904/DTD/svg10.dtd">
<svg version="1.0" xmlns="http://www.w3.org/2000/svg"
 width="1024.000000pt" height="1024.000000pt" viewBox="0 0 1024.000000 1024.000000"
 preserveAspectRatio="xMidYMid meet">

<g transform="translate(0.000000,1024.000000) scale(0.100000,-0.100000)"
fill="#000000" stroke="none">
<path d="M5768 8513 c7 -3 16 -2 19 1 4 3 -2 6 -13 5 -11 0 -14 -3 -6 -6z"/>
<path d="M4141 8476 c-9 -10 -6 -12 14 -8 29 5 31 8 11 15 -8 3 -19 0 -25 -7z"/>
<path d="M6000 8462 c53 -18 85 -24 75 -13 -5 5 -30 12 -55 15 -31 4 -37 3
-20 -2z"/>
<path d="M4670 8434 c-487 -56 -963 -219 -1394 -476 -295 -177 -620 -443 -806
-662 -45 -53 -75 -79 -104 -90 -48 -18 -159 -127 -261 -256 -85 -106 -109
-158 -101 -213 6 -36 2 -47 -37 -107 -25 -36 -54 -85 -66 -108 -12 -23 -34
-50 -49 -59 -42 -27 -59 -55 -188 -291 -68 -124 -77 -159 -63 -229 13 -64 54
-122 119 -169 28 -20 50 -42 50 -49 0 -8 -7 -43 -15 -78 -31 -133 -66 -392
-66 -488 0 -114 20 -246 63 -409 17 -63 32 -124 35 -135 4 -17 -7 -26 -58 -50
-222 -105 -393 -270 -489 -469 -80 -169 -103 -321 -104 -686 -1 -255 5 -299
55 -430 44 -115 113 -224 197 -312 93 -97 170 -154 283 -207 137 -66 190 -76
379 -75 143 1 179 5 265 27 l100 26 93 -100 c210 -223 491 -449 752 -604 586
-348 1169 -515 1795 -515 769 0 1451 225 2104 694 154 111 267 210 433 378
l136 139 59 -15 c509 -131 956 115 1110 611 27 86 28 94 28 328 -1 428 -43
647 -167 852 -57 95 -190 227 -305 303 -57 38 -109 70 -115 72 -6 2 6 53 30
129 22 69 50 171 61 227 37 176 24 409 -35 676 l-27 120 24 15 c54 34 108 101
124 152 19 65 19 95 1 147 -25 70 -189 366 -220 397 -27 27 -57 74 -199 320
-77 134 -190 272 -434 531 -293 311 -570 530 -913 721 -452 251 -999 415
-1395 417 -128 1 -144 -1 -189 -23 -28 -14 -59 -40 -75 -62 -14 -21 -28 -38
-31 -38 -3 -1 -15 14 -27 33 -13 21 -43 44 -78 62 -48 23 -71 27 -153 30 -53
1 -113 0 -132 -2z m725 -158 c119 -7 346 -49 535 -100 455 -123 908 -360 1285
-672 104 -85 292 -270 284 -278 -2 -2 -54 -12 -114 -20 -101 -14 -111 -14
-122 1 -7 9 -10 21 -6 27 3 6 3 9 0 6 -3 -3 -49 36 -102 87 -155 150 -317 264
-422 298 -41 13 -54 22 -61 44 -12 35 -45 47 -151 55 -49 4 -86 13 -108 27
-25 16 -43 19 -67 15 -82 -16 -420 -297 -390 -326 5 -4 18 -10 29 -12 11 -2
34 -24 50 -50 34 -54 40 -56 150 -33 39 8 145 18 238 21 121 5 170 11 178 21
17 20 45 16 113 -16 89 -43 201 -131 279 -219 96 -108 97 -111 81 -205 l-14
-78 61 -100 c68 -112 126 -231 160 -331 22 -63 33 -75 74 -83 6 -1 21 -5 35
-8 40 -10 133 -15 120 -7 -8 5 4 11 29 15 23 4 45 5 47 2 3 -3 26 4 50 14 26
12 54 18 67 14 15 -4 18 -3 9 3 -10 7 -8 12 10 24 13 8 31 14 41 12 9 -1 17 4
17 12 0 33 19 9 48 -58 39 -95 43 -108 32 -108 -5 0 -29 -13 -52 -29 -24 -15
-71 -46 -106 -67 l-64 -39 5 -50 c3 -27 8 -57 11 -65 4 -10 -15 -27 -61 -55
-87 -52 -93 -63 -70 -122 10 -27 24 -68 31 -93 7 -25 28 -62 47 -82 19 -20 40
-44 48 -53 14 -17 45 -17 85 0 15 7 17 5 12 -12 -5 -16 -1 -22 18 -27 13 -3
33 -3 43 0 10 3 2 -5 -18 -18 -66 -43 -139 -136 -169 -215 -31 -84 -21 -98 23
-28 l38 60 -2 -50 c-3 -63 -8 -77 -25 -71 -8 3 -11 0 -7 -10 4 -11 9 -12 16
-5 16 16 27 13 27 -5 0 -8 -3 -13 -7 -11 -5 3 -14 -2 -21 -9 -11 -13 -10 -14
13 -10 14 3 23 1 20 -4 -8 -12 6 -41 16 -34 6 3 7 -5 3 -20 -4 -18 -2 -26 7
-26 13 0 59 -61 59 -78 0 -10 133 -159 136 -152 1 3 15 -6 32 -18 l31 -24 -26
-61 c-38 -90 -36 -88 -117 -83 -62 4 -197 23 -202 29 -2 1 -7 47 -14 102 -6
55 -26 156 -44 225 -70 267 -99 370 -103 367 -2 -2 2 -60 7 -128 6 -68 17
-223 25 -344 9 -121 18 -226 20 -233 3 -9 -6 -12 -30 -10 l-35 2 0 81 c0 92
-34 308 -80 500 -17 72 -37 162 -46 200 -8 39 -37 158 -64 265 -103 410 -139
605 -139 745 1 175 -167 387 -398 504 -97 48 -179 64 -311 58 -100 -4 -119 -8
-175 -35 -35 -18 -86 -53 -112 -79 -27 -27 -42 -39 -32 -27 9 11 17 25 17 30
0 5 14 21 31 35 24 19 29 28 19 34 -9 5 -11 4 -6 -4 4 -6 0 -14 -10 -18 -10
-4 -19 -2 -21 4 -6 17 -74 -11 -107 -44 l-29 -28 17 32 c10 21 26 34 46 38 16
4 30 10 30 15 0 5 6 10 13 13 6 2 3 2 -8 0 -11 -3 -56 -6 -100 -7 -47 -1 -95
-9 -117 -19 -36 -15 -38 -15 -38 2 0 23 38 64 77 84 39 20 365 58 498 58 178
-1 404 -65 500 -142 70 -57 70 -57 55 -29 -7 14 -28 41 -47 62 -27 28 -36 47
-41 85 -6 54 -13 63 -60 63 -20 0 -48 11 -73 30 -77 55 -141 73 -285 78 -163
5 -227 -10 -271 -63 -28 -34 -32 -35 -129 -45 -121 -13 -156 -23 -216 -66
l-48 -34 -32 19 c-73 43 -97 44 -720 42 -629 -1 -645 -2 -715 -47 -21 -13 -26
-12 -65 17 -64 46 -95 56 -217 70 -75 8 -111 16 -111 25 0 23 -58 62 -112 74
-69 17 -238 17 -308 0 -59 -14 -143 -52 -173 -78 -10 -9 -37 -18 -60 -21 -42
-6 -42 -6 -50 -58 -7 -43 -18 -62 -63 -113 -30 -33 -54 -63 -54 -65 0 -2 28
17 63 43 183 139 425 179 797 133 96 -12 183 -25 194 -28 26 -7 96 -72 96 -89
0 -18 -12 -18 -69 2 -36 13 -52 14 -75 5 -24 -10 -28 -16 -24 -40 4 -26 2 -28
-14 -17 -14 8 -23 8 -39 -2 -12 -8 -18 -9 -14 -3 3 6 -1 14 -10 17 -13 6 -14
8 -3 15 10 7 10 9 -2 9 -9 0 -22 -6 -29 -12 -12 -11 -13 -10 -7 6 5 14 2 17
-10 12 -22 -8 -40 4 -23 16 10 6 7 7 -8 3 -16 -4 -23 -2 -23 7 0 8 -4 7 -11
-4 -9 -16 -13 -16 -58 2 -145 57 -362 45 -505 -27 -141 -71 -280 -220 -352
-377 -23 -51 -24 -61 -22 -232 l3 -179 -78 -320 c-43 -176 -96 -403 -118 -505
-22 -102 -48 -223 -59 -270 -31 -134 -60 -315 -59 -362 l2 -43 7 35 8 35 -1
-34 c-2 -29 -7 -36 -31 -43 -17 -4 -32 -5 -35 -3 -2 3 4 121 14 262 9 142 19
294 21 338 l4 80 -31 -90 c-45 -131 -89 -324 -102 -447 -7 -59 -14 -109 -17
-111 -9 -9 -248 -49 -271 -45 -17 2 -29 19 -51 73 l-28 69 24 21 c14 11 43 34
64 52 102 83 223 313 217 413 -1 22 -1 40 1 40 2 0 20 -24 40 -52 36 -53 36
-53 30 -18 -3 19 -17 56 -29 82 -13 26 -19 44 -14 41 5 -3 4 4 -2 16 -7 11
-15 21 -19 21 -4 0 -15 14 -25 31 -10 18 -21 29 -24 25 -4 -3 -23 9 -42 28
-20 18 -48 38 -64 42 -26 9 -27 10 -12 32 15 20 63 33 51 14 -3 -5 9 -8 27 -8
18 0 49 -3 70 -7 32 -7 38 -5 45 12 4 10 26 40 50 65 27 28 42 54 42 70 0 14
9 49 20 78 25 66 17 81 -80 139 -38 23 -70 46 -70 51 0 7 5 6 14 -1 11 -9 13
-5 13 21 0 18 3 52 6 75 3 26 1 45 -5 49 -7 5 -8 2 -4 -7 4 -8 1 -6 -7 4 -9
10 -18 18 -21 18 -21 -3 -26 0 -20 11 5 8 2 9 -9 5 -10 -3 -17 -2 -17 3 0 6
-4 10 -9 10 -5 0 -34 14 -65 32 -66 38 -69 52 -31 133 25 52 56 81 51 47 -2
-9 8 -22 22 -29 28 -15 32 -16 31 -5 -3 20 5 19 56 -4 31 -13 63 -24 73 -24
15 0 15 -2 2 -11 -11 -8 -6 -9 20 -5 25 4 31 3 20 -4 -18 -12 77 -12 159 -1
70 10 92 35 125 143 26 86 80 203 135 296 17 29 28 58 25 64 -4 6 -2 8 3 5 20
-12 34 18 23 48 -8 20 -7 31 1 42 10 11 10 13 -1 11 -7 -2 -17 10 -22 25 -14
38 17 82 157 222 116 116 176 161 263 193 48 19 53 19 61 4 8 -14 35 -18 173
-23 90 -3 212 -14 272 -24 85 -14 111 -16 114 -6 2 7 19 31 36 54 23 30 38 41
54 39 54 -8 9 48 -133 168 -121 102 -186 146 -232 160 -36 11 -44 10 -91 -15
-39 -20 -62 -26 -90 -23 -71 9 -172 -38 -172 -81 0 -11 -23 -23 -73 -38 -119
-36 -303 -177 -462 -355 -35 -39 -68 -67 -80 -67 -11 -1 -42 6 -69 14 -27 8
-66 15 -88 15 -21 0 -38 4 -38 9 0 4 53 61 118 126 124 125 390 333 562 440
194 120 469 249 715 335 260 91 604 160 800 160 l71 0 32 -45 c73 -103 172
-113 265 -26 16 14 35 38 43 53 11 22 20 27 42 23 15 -2 72 -6 127 -9z m-1597
-583 c-2 -19 -12 -30 -35 -40 l-33 -13 0 33 c0 41 5 47 42 47 26 0 29 -3 26
-27z m2580 15 c7 -7 12 -20 12 -30 0 -14 -8 -18 -35 -18 -30 0 -35 3 -35 23 0
13 3 27 7 30 10 11 38 8 51 -5z m185 -33 c56 -6 57 -7 56 -38 0 -47 -22 -102
-39 -102 -10 0 -18 16 -24 48 -8 48 -28 60 -34 21 -1 -10 -5 -30 -8 -44 -5
-22 -7 -23 -15 -7 -6 9 -8 21 -5 26 3 5 -3 11 -15 14 -16 4 -18 3 -8 -9 9 -11
9 -14 0 -14 -7 0 -9 -5 -6 -10 4 -6 12 -7 18 -4 7 4 5 0 -3 -9 -8 -9 -28 -19
-45 -23 -29 -7 -29 -6 -14 12 22 26 30 52 17 56 -7 3 -8 20 -4 51 7 47 8 48
39 43 18 -3 58 -8 90 -11z m-2881 -35 c2 -22 -1 -45 -6 -50 -5 -5 -3 -19 8
-34 22 -34 21 -35 -20 -26 -20 5 -42 6 -49 4 -8 -4 -15 10 -19 40 -4 25 -12
48 -18 52 -18 12 -63 -47 -60 -80 2 -30 2 -31 -9 -6 -5 13 -11 47 -12 74 -2
45 0 50 23 57 14 4 55 7 91 8 l67 1 4 -40z m298 -71 c52 -50 77 -78 55 -63
-30 21 -36 23 -22 7 16 -19 16 -21 2 -27 -28 -10 -84 -7 -120 8 -26 11 -35 21
-35 39 0 13 -3 52 -7 87 -6 59 -5 62 13 51 10 -6 62 -52 114 -102z m2280 22
l0 -89 -37 -6 c-21 -3 -63 -9 -93 -12 l-55 -6 28 24 c43 38 32 42 -20 7 -44
-29 -43 -27 17 27 36 33 85 78 110 101 25 23 46 43 48 43 1 0 2 -40 2 -89z
m-2503 -43 c-3 -8 -6 -5 -6 6 -1 11 2 17 5 13 3 -3 4 -12 1 -19z m-317 3 c0
-17 -12 -41 -20 -41 -4 0 -10 11 -12 25 -4 19 -1 25 13 25 11 0 19 -4 19 -9z
m2897 -13 c-3 -8 -6 -5 -6 6 -1 11 2 17 5 13 3 -3 4 -12 1 -19z m-2977 -11 c0
-7 -10 -18 -21 -26 -18 -11 -23 -11 -30 1 -16 25 -14 26 44 37 4 0 7 -5 7 -12z
m3403 -7 c-3 -11 -7 -20 -9 -20 -2 0 -4 9 -4 20 0 11 4 20 9 20 5 0 7 -9 4
-20z m57 -10 c0 -10 -29 -34 -35 -28 -10 10 8 46 21 41 8 -3 14 -9 14 -13z
m70 -51 c0 -22 -12 -30 -29 -19 -9 5 -11 17 -7 35 6 22 9 25 21 15 8 -7 15
-21 15 -31z m-3613 -13 c-9 -26 -27 -15 -27 16 1 31 1 32 15 13 9 -10 14 -24
12 -29z m3659 -32 c-4 -9 -9 -15 -11 -12 -3 3 -3 13 1 22 4 9 9 15 11 12 3 -3
3 -13 -1 -22z m34 -24 c0 -5 -2 -10 -4 -10 -3 0 -8 5 -11 10 -3 6 -1 10 4 10
6 0 11 -4 11 -10z m-3142 -159 c12 -7 -28 -10 -135 -11 -84 0 -153 2 -153 5 0
25 247 30 288 6z m2727 10 c36 -6 31 -8 -45 -14 -105 -8 -235 -9 -227 -1 18
18 202 28 272 15z m-3945 -127 c85 -16 170 -42 170 -53 0 -4 -22 -29 -50 -56
-27 -27 -50 -44 -50 -39 0 6 -37 26 -82 44 -46 18 -96 40 -113 49 -40 22 -105
23 -97 1 5 -12 3 -13 -10 -2 -16 13 -22 9 -43 -27 -6 -11 -4 -13 9 -8 11 4 15
3 11 -4 -4 -6 -13 -8 -21 -5 -7 3 -20 -4 -28 -16 -8 -11 -19 -17 -25 -14 -5 4
-12 3 -15 -2 -8 -13 27 -11 43 2 12 9 12 8 1 -11 -8 -12 -18 -19 -24 -16 -5 4
-6 1 -1 -6 8 -14 -43 -74 -56 -66 -9 6 0 45 11 45 4 0 11 8 14 18 8 23 -58
-51 -95 -107 -31 -48 -35 -70 -18 -104 10 -21 9 -21 -10 2 -27 30 -27 75 1
120 32 52 124 167 184 230 l52 53 84 -7 c45 -4 117 -13 158 -21z m5028 -21
c68 -32 225 -182 270 -256 32 -52 33 -56 19 -88 -15 -35 -90 -119 -106 -119
-6 0 -22 17 -38 38 -42 57 -79 90 -111 97 -36 7 -72 40 -72 63 0 20 -155 167
-209 198 -132 76 97 138 247 67z m-1933 -38 c22 -11 45 -31 52 -45 9 -18 13
-111 13 -348 l0 -323 -25 -24 -24 -25 -640 0 c-463 0 -647 3 -668 12 -15 6
-34 10 -41 9 -6 -1 -17 10 -22 24 -13 34 -13 635 0 669 15 40 53 58 138 65 42
3 325 6 627 6 530 0 551 -1 590 -20z m-3217 -17 c21 -21 13 -55 -19 -82 -17
-14 -36 -23 -42 -20 -31 18 -47 40 -47 65 0 16 7 32 18 38 24 14 75 14 90 -1z
m3559 -24 c-3 -3 -12 -4 -19 -1 -8 3 -5 6 6 6 11 1 17 -2 13 -5z m-2094 -26
c18 -13 38 -22 44 -20 14 3 18 -10 7 -21 -6 -5 -94 51 -94 60 0 8 14 1 43 -19z
m2177 8 c0 -3 -4 -8 -10 -11 -5 -3 -10 -1 -10 4 0 6 5 11 10 11 6 0 10 -2 10
-4z m-3297 -56 c13 -27 20 -47 15 -44 -4 3 -11 -3 -14 -13 -14 -40 -57 -128
-66 -134 -5 -3 -15 -26 -23 -50 -7 -24 -14 -38 -14 -31 -1 6 -6 12 -12 12 -5
0 -9 -10 -7 -21 2 -14 -3 -23 -14 -24 -15 -3 -14 0 3 28 10 18 22 39 26 47 3
8 9 17 13 20 3 3 19 31 35 63 15 31 32 57 35 57 4 0 10 11 12 25 8 40 -6 29
-35 -27 -15 -29 -47 -87 -72 -128 -24 -41 -51 -88 -59 -105 -41 -88 -64 -144
-58 -149 3 -3 -6 -6 -21 -6 -17 0 -42 16 -76 49 -28 27 -51 54 -51 59 0 20
339 422 356 422 2 0 14 -22 27 -50z m3742 0 c50 -48 59 -89 32 -144 -25 -52
-76 -91 -107 -81 -12 4 -37 7 -56 7 -22 0 -32 4 -27 11 4 6 1 8 -8 5 -16 -6
-37 12 -32 28 2 6 -6 19 -18 30 -20 18 -21 18 -18 0 6 -30 -19 -31 -27 -1 -9
37 1 91 25 124 31 44 77 62 144 58 49 -3 62 -8 92 -37z m-4183 -10 c24 -19 23
-28 -6 -55 -39 -36 -54 -37 -88 -6 l-32 29 37 37 c40 40 35 40 89 -5z m205 13
c14 -21 13 -25 -20 -58 l-36 -36 -31 22 c-16 13 -30 25 -30 28 0 3 9 21 20 39
17 28 26 33 52 30 18 -2 37 -12 45 -25z m4764 -41 c118 -128 283 -359 277
-389 -5 -29 -24 -24 -41 11 -10 21 -12 36 -6 38 6 2 0 12 -12 23 -12 11 -19
14 -15 7 4 -7 10 -25 12 -40 4 -20 -4 -13 -31 30 -25 40 -35 65 -31 80 3 13 3
17 0 11 -10 -22 -26 -14 -19 9 6 16 4 20 -8 15 -9 -3 -23 3 -34 15 -10 12 -12
18 -6 14 9 -5 11 -2 7 8 -3 9 -12 12 -22 8 -15 -5 -15 -2 2 23 l19 30 -22 -19
c-19 -17 -21 -17 -15 -3 5 13 2 16 -10 11 -12 -5 -15 -2 -10 10 5 13 2 15 -12
9 -16 -6 -17 -4 -6 9 10 12 9 18 -3 28 -13 11 -15 10 -9 -6 5 -18 4 -18 -11 1
-9 11 -14 30 -12 42 2 14 0 20 -6 16 -6 -4 -8 0 -4 11 5 12 2 16 -10 14 -10
-2 -19 5 -21 15 -6 29 12 19 59 -31z m-3756 17 c45 -13 105 -70 105 -100 0
-18 -2 -18 -40 6 -46 29 -51 30 -43 9 7 -20 -16 -64 -34 -64 -8 0 -24 10 -37
23 -28 27 -61 47 -78 47 -6 0 -20 -7 -30 -16 -16 -15 -18 -15 -24 -1 -9 24 26
68 71 88 47 22 57 22 110 8z m-1134 -60 c16 -11 34 -17 40 -13 16 9 -4 -25
-31 -53 -11 -13 -18 -23 -14 -23 4 0 -3 -10 -15 -22 -26 -24 -54 -16 -59 18
-2 14 -1 16 6 5 6 -8 12 -9 16 -3 3 6 -3 13 -14 17 -17 5 -20 13 -16 43 2 27
8 36 19 34 9 -1 18 2 22 8 9 14 13 13 46 -11z m-211 -24 c13 -14 21 -25 18
-25 -2 0 -15 11 -28 25 -13 14 -21 25 -18 25 2 0 15 -11 28 -25z m5807 -247
c81 -125 86 -137 74 -151 -12 -14 -80 -52 -84 -46 -1 2 -22 44 -47 92 -25 48
-50 93 -57 98 -9 8 -4 21 20 54 18 24 33 44 33 44 1 1 28 -41 61 -91z m-4764
58 c18 -7 52 -31 77 -53 25 -22 61 -50 80 -62 l35 -22 -70 3 c-42 1 -80 8 -95
18 l-25 15 23 -29 c12 -16 20 -31 18 -34 -3 -2 -42 14 -88 37 -46 22 -85 36
-86 31 -2 -6 -8 -7 -13 -4 -6 3 -7 -5 -3 -22 5 -19 4 -25 -5 -20 -20 13 -11
44 22 72 29 25 30 26 7 19 -14 -4 -38 -19 -54 -34 l-28 -26 7 25 c23 77 119
120 198 86z m597 -2 c105 -42 116 -166 20 -231 -59 -40 -89 -32 -195 51 -22
18 -39 26 -43 19 -5 -6 -17 -4 -35 7 l-28 18 75 61 c118 96 136 103 206 75z
m2282 6 c22 -7 50 -26 70 -49 28 -33 33 -46 32 -88 -1 -73 -46 -117 -128 -124
-27 -3 -41 0 -44 10 -3 10 2 13 22 9 15 -3 29 0 33 6 3 6 3 8 -1 5 -4 -4 -23
8 -42 26 -43 41 -74 51 -74 25 0 -11 5 -22 10 -25 12 -7 13 -25 2 -25 -10 0
-47 62 -44 74 2 5 -4 6 -13 2 -40 -15 -23 73 23 117 47 45 89 55 154 37z m670
-10 c74 -21 116 -108 84 -175 -17 -35 -36 -54 -36 -36 0 6 -3 10 -7 10 -21 -3
-76 4 -60 8 24 6 22 23 -4 23 -11 0 -18 4 -14 9 3 6 -11 13 -32 16 -57 9 -85
23 -77 38 5 8 2 8 -9 -2 -9 -7 -17 -24 -17 -38 0 -14 -4 -21 -10 -18 -32 20
17 128 70 156 40 22 60 23 112 9z m-4182 -54 c0 -2 -7 -9 -15 -16 -13 -11 -14
-10 -9 4 5 14 24 23 24 12z m-476 -58 c17 -14 17 -17 -12 -89 -16 -41 -35 -75
-43 -77 -19 -3 -85 38 -73 46 6 4 26 39 44 78 37 75 38 76 84 42z m1404 -141
c18 -29 51 -74 72 -102 38 -47 49 -79 33 -87 -5 -1 -21 -20 -37 -42 -33 -44
-87 -71 -125 -61 -14 3 -34 7 -43 9 -21 3 -58 35 -58 49 0 6 10 2 23 -9 13
-10 10 -7 -5 8 -15 15 -28 33 -28 40 0 10 -3 9 -9 -1 -7 -11 -10 -9 -16 8 -8
27 27 92 98 177 28 34 54 63 57 63 3 0 20 -23 38 -52z m4390 -2 c-3 -3 -9 2
-12 12 -6 14 -5 15 5 6 7 -7 10 -15 7 -18z m40 -9 c14 5 13 3 -2 -10 -25 -20
-40 -20 -32 0 3 9 7 21 7 27 1 7 3 4 6 -5 3 -10 11 -15 21 -12z m-5898 -121
c232 -136 226 -132 217 -141 -7 -7 -88 28 -147 65 -190 118 -294 174 -308 165
-8 -5 -45 -61 -83 -124 -113 -188 -113 -162 1 35 56 97 77 125 94 125 6 0 108
-56 226 -125z m6155 47 c55 -86 159 -281 152 -288 -13 -13 -46 -11 -51 3 -4 9
-9 13 -12 10 -3 -3 0 -16 7 -29 6 -12 8 -20 3 -15 -10 10 -115 -93 -107 -106
3 -6 1 -7 -4 -4 -6 4 -44 -13 -85 -38 -42 -25 -83 -45 -93 -45 -17 0 -73 38
-67 47 2 2 -10 19 -25 38 -28 33 -30 33 -43 14 -17 -23 -30 -25 -30 -3 0 8 -4
13 -10 9 -5 -3 -13 9 -18 27 l-9 33 -11 -25 c-14 -32 -15 -10 -2 25 6 16 6 24
0 20 -5 -3 -15 3 -22 15 -7 11 -17 20 -22 20 -6 0 -5 -5 2 -12 7 -7 12 -17 12
-22 0 -6 -7 -1 -15 11 -8 12 -12 29 -8 39 4 11 2 15 -4 11 -14 -9 -49 71 -37
83 8 7 151 91 379 221 28 16 56 29 63 29 7 0 32 -31 57 -68z m-1725 -1 c70
-49 93 -146 45 -191 -13 -12 -22 -26 -19 -31 2 -4 -8 -7 -23 -5 -16 1 -39 -1
-51 -6 -43 -15 -99 8 -129 54 l-27 40 -9 -27 c-13 -38 -27 -14 -27 45 0 64 42
120 105 139 40 12 104 3 135 -18z m-4530 -172 l0 -52 55 7 c53 6 56 5 65 -20
16 -41 -2 -62 -60 -70 l-49 -6 6 -46 c7 -53 -10 -72 -63 -72 -34 0 -44 16 -44
72 0 25 -2 26 -37 20 -21 -4 -56 -7 -78 -7 -38 0 -40 2 -43 32 -4 38 13 50 90
61 l53 7 3 52 c3 46 6 53 30 62 15 5 37 10 50 10 20 1 22 -4 22 -50z m4964
-11 c-28 -53 -119 -135 -189 -168 -80 -38 -178 -60 -265 -59 l-65 1 79 13 c90
15 141 33 240 82 76 38 180 114 196 144 6 10 13 19 16 19 2 0 -3 -15 -12 -32z
m-629 2 c3 -5 1 -10 -4 -10 -6 0 -11 5 -11 10 0 6 2 10 4 10 3 0 8 -4 11 -10z
m-1885 -39 c77 -39 113 -71 100 -87 -10 -11 -21 -7 -63 25 -71 52 -113 64
-212 59 -63 -3 -95 -10 -136 -31 -55 -28 -148 -109 -150 -130 0 -7 -4 -3 -8 8
-8 20 7 57 20 49 4 -2 14 7 23 21 66 100 304 148 426 86z m1483 -9 c80 -37
188 -138 186 -175 0 -12 -3 -16 -6 -10 -2 7 -4 15 -3 18 0 3 -6 12 -14 20 -8
8 -16 20 -19 27 -2 7 -8 10 -12 5 -5 -4 -3 -13 3 -19 7 -7 12 -16 12 -22 0 -5
-13 9 -28 30 -40 55 -89 89 -160 113 -128 43 -263 18 -353 -66 -28 -26 -50
-40 -54 -34 -3 6 -11 11 -16 11 -6 0 -7 -5 -4 -10 4 -6 1 -9 -6 -8 -7 2 -23
-15 -35 -37 -13 -22 -24 -36 -24 -32 0 13 21 49 45 79 21 24 24 25 39 10 15
-15 16 -15 16 1 0 9 -6 17 -12 17 -7 1 6 18 29 39 97 87 281 107 416 43z
m-2783 -22 c96 -74 247 -134 373 -149 l72 -8 -68 -2 c-166 -3 -336 65 -412
165 -30 39 -23 38 35 -6z m1492 -27 c50 -53 82 -139 85 -228 1 -73 1 -75 -7
-30 -18 107 -57 188 -142 300 l-23 30 30 -22 c17 -12 42 -34 57 -50z m817 15
c-66 -85 -86 -131 -118 -283 -9 -38 -9 -36 -10 26 -1 82 19 153 62 216 28 39
87 93 104 93 2 0 -15 -23 -38 -52z m-1085 -29 c52 -27 90 -65 112 -113 13 -28
24 -60 23 -71 0 -11 -6 -2 -14 20 -7 22 -13 36 -14 32 -1 -5 -19 7 -41 26 -51
43 -137 72 -190 63 -52 -8 -91 -27 -83 -39 4 -6 1 -7 -7 -2 -8 5 -18 1 -27
-10 -7 -11 -13 -15 -13 -10 0 5 -11 -7 -25 -27 -14 -20 -25 -45 -25 -55 1 -12
5 -8 14 12 13 28 13 25 12 -47 -1 -75 -12 -92 -20 -33 -2 17 -10 44 -17 62
-11 27 -10 37 6 73 23 52 93 115 143 129 42 11 134 6 166 -10z m1511 -8 c74
-34 120 -95 130 -172 l5 -44 -15 33 c-9 18 -20 30 -25 27 -5 -3 -7 0 -5 8 17
43 -105 117 -193 117 -32 0 -51 -4 -47 -10 3 -5 0 -7 -8 -4 -21 8 -100 -30
-136 -67 -31 -31 -33 -32 -26 -9 11 39 58 93 101 117 51 29 160 31 219 4z
m-1315 -20 c-14 -28 -13 -38 3 -17 12 17 14 17 28 -1 13 -16 13 -17 -3 -4 -21
15 -24 2 -5 -19 10 -12 9 -12 -3 -3 -8 6 -19 11 -25 10 -16 -1 -19 35 -3 44
19 12 20 11 8 -10z m-2122 -39 c61 -31 82 -47 82 -62 0 -11 -1 -20 -3 -20 -2
0 -38 18 -81 40 -42 22 -83 40 -91 40 -8 0 -26 -21 -39 -47 -14 -27 -25 -45
-26 -41 0 13 64 138 70 136 3 -2 42 -22 88 -46z m5298 -43 c25 -50 43 -93 40
-96 -4 -5 -17 17 -59 100 -11 20 -25 37 -31 37 -16 0 -124 -58 -131 -71 -10
-16 -25 -10 -25 11 0 14 19 29 69 55 38 19 72 39 76 45 3 5 8 10 10 10 3 0 25
-41 51 -91z m-1546 32 c73 -145 32 -352 -95 -477 -31 -30 -61 -52 -66 -48 -6
3 2 17 16 30 14 13 23 29 20 34 -4 6 -1 9 5 8 16 -4 82 92 76 109 -3 8 -2 12
3 9 5 -3 16 20 26 51 21 67 16 221 -9 291 -18 51 -4 46 24 -7z m-2319 -17
c-23 -91 -24 -149 -1 -230 24 -87 44 -125 104 -199 22 -27 34 -46 26 -41 -8 4
-6 0 4 -8 11 -9 16 -16 12 -16 -5 0 -2 -7 5 -17 13 -15 12 -15 -7 -5 -45 24
-117 109 -152 181 -36 72 -37 79 -37 180 0 89 4 114 23 155 26 56 38 56 23 0z
m1789 12 c0 -3 -15 -15 -32 -27 -29 -20 -31 -21 -18 -4 22 29 50 46 50 31z
m-567 -56 c104 -91 -9 -239 -133 -175 -40 21 -60 53 -60 98 0 31 7 46 34 73
29 29 41 34 80 34 36 0 52 -6 79 -30z m-983 4 c0 -8 -5 -12 -10 -9 -6 4 -8 11
-5 16 9 14 15 11 15 -7z m336 4 c11 -18 13 -50 3 -73 -7 -17 -8 -16 -10 10 -1
17 -2 37 -1 45 0 8 -5 18 -11 22 -9 6 -9 8 0 8 6 0 15 -6 19 -12z m1509 -7 c3
-5 2 -12 -3 -15 -5 -3 -9 1 -9 9 0 17 3 19 12 6z m-565 -16 c0 -8 -4 -15 -10
-15 -5 0 -7 7 -4 15 4 8 8 15 10 15 2 0 4 -7 4 -15z m2884 7 c3 -5 -1 -9 -9
-9 -8 0 -12 4 -9 9 3 4 7 8 9 8 2 0 6 -4 9 -8z m-316 -16 c-7 -8 -15 -12 -17
-11 -5 6 10 25 20 25 5 0 4 -6 -3 -14z m-5497 -6 c26 -15 26 -60 -1 -60 -22 0
-44 34 -36 56 6 17 11 17 37 4z m2015 -41 c1 -22 0 -38 -3 -35 -3 3 -7 24 -8
46 -1 22 0 38 3 35 4 -3 7 -24 8 -46z m1071 29 c-3 -8 -6 -5 -6 6 -1 11 2 17
5 13 3 -3 4 -12 1 -19z m2075 -2 c4 -18 -1 -28 -18 -36 -12 -7 -27 -9 -33 -6
-19 12 -12 42 12 54 32 15 34 15 39 -12z m-1982 -41 c-6 -30 -8 -33 -9 -13 -1
25 8 62 14 56 2 -2 -1 -21 -5 -43z m64 19 c5 -14 4 -15 -9 -4 -17 14 -19 20
-6 20 5 0 12 -7 15 -16z m2206 -19 c0 -5 -5 -3 -10 5 -5 8 -10 20 -10 25 0 6
5 3 10 -5 5 -8 10 -19 10 -25z m-3798 0 c3 -14 1 -25 -3 -25 -5 0 -9 11 -9 25
0 14 2 25 4 25 2 0 6 -11 8 -25z m295 -37 c-3 -8 -6 -5 -6 6 -1 11 2 17 5 13
3 -3 4 -12 1 -19z m1506 -9 c-9 -9 -12 -7 -10 9 1 14 5 18 11 12 7 -7 6 -14
-1 -21z m-543 -14 c0 -13 -4 -27 -10 -30 -6 -4 -10 8 -10 30 0 22 4 34 10 30
6 -3 10 -17 10 -30z m588 10 c-3 -3 -9 2 -12 12 -6 14 -5 15 5 6 7 -7 10 -15
7 -18z m-358 -15 c16 -38 35 -52 25 -19 -4 13 -4 21 0 16 5 -4 9 -16 10 -27 1
-12 16 -28 38 -39 33 -17 42 -18 80 -6 36 11 44 10 56 -2 12 -13 11 -14 -9 -8
-15 5 -20 4 -16 -4 9 -14 53 -15 61 -1 3 6 14 10 23 10 15 -1 14 -3 -3 -16
-15 -12 -37 -15 -91 -11 -91 5 -149 35 -182 95 -13 23 -19 42 -14 42 5 0 15
-14 22 -30z m-219 -67 c-11 -16 -11 -16 -6 4 5 19 3 22 -12 17 -15 -5 -15 -4
-3 5 21 14 35 -3 21 -26z m-1034 20 c-4 -3 1 -12 11 -19 15 -12 13 -13 -17 -7
-25 4 -32 3 -27 -5 4 -7 17 -12 29 -13 18 -1 16 -3 -8 -10 -39 -11 -136 -7
-132 6 2 6 17 13 33 16 23 5 24 7 7 8 -13 0 -23 5 -23 9 0 5 14 7 30 4 17 -2
30 -9 30 -16 0 -7 3 -7 8 -1 4 6 16 15 27 22 22 13 42 17 32 6z m1553 -3 c-8
-5 -19 -10 -25 -10 -5 0 -3 5 5 10 8 5 20 10 25 10 6 0 3 -5 -5 -10z m-167
-17 c-7 -2 -19 -2 -25 0 -7 3 -2 5 12 5 14 0 19 -2 13 -5z m-3835 -31 l43 -29
-61 -30 c-59 -29 -61 -29 -56 -9 2 11 8 38 11 59 4 20 10 37 14 37 3 0 25 -13
49 -28z m6327 -18 c3 -26 9 -52 11 -59 3 -7 -22 2 -56 18 l-61 30 43 28 c24
15 46 28 49 28 4 1 10 -20 14 -45z m-480 -22 c-3 -3 -11 0 -18 7 -9 10 -8 11
6 5 10 -3 15 -9 12 -12z m-2344 -29 c-12 -20 -14 -14 -5 12 4 9 9 14 11 11 3
-2 0 -13 -6 -23z m-3194 -62 c82 -44 103 -76 102 -156 0 -33 -5 -69 -10 -80
-7 -15 -8 -12 -4 15 6 44 -10 22 -26 -34 -11 -42 -86 -129 -131 -152 -32 -16
-50 -18 -28 -3 11 8 7 9 -18 5 -43 -7 -140 19 -164 44 -24 26 -26 25 -38 -6
-7 -19 -7 -31 1 -40 18 -22 -14 -18 -33 4 -18 20 -38 76 -38 105 0 18 2 17 21
-7 26 -33 62 -34 94 -1 30 29 31 49 5 75 -15 15 -28 19 -48 14 -41 -10 -62
-23 -62 -39 0 -8 -4 -15 -9 -15 -5 0 -11 -8 -13 -17 -2 -12 -6 -14 -11 -7 -4
7 3 24 14 38 12 15 19 30 15 33 -3 3 -1 14 5 24 6 13 6 19 -1 19 -5 0 -10 -7
-10 -15 0 -8 -5 -15 -11 -15 -5 0 -8 -4 -5 -9 3 -5 0 -21 -8 -36 -8 -15 -13
-48 -13 -74 2 -37 -1 -47 -14 -47 -13 0 -14 7 -7 46 5 25 10 55 11 67 1 13 5
23 9 23 4 0 5 7 1 16 -10 27 -34 -43 -42 -126 l-7 -75 -8 57 c-21 155 50 295
183 363 78 39 229 42 298 6z m3218 20 c-3 -6 2 -14 11 -19 9 -5 15 -13 15 -18
-1 -5 4 -10 9 -10 20 -3 21 -4 14 -16 -5 -8 -17 -1 -35 22 -24 29 -30 50 -13
50 3 0 3 -4 -1 -9z m2720 -25 c127 -58 185 -150 191 -301 l4 -90 -21 95 c-11
52 -31 114 -45 138 -32 54 -41 55 -14 1 19 -36 49 -142 63 -225 5 -29 2 -35
-35 -60 -22 -16 -50 -29 -62 -30 -11 -1 -29 -4 -38 -8 -40 -14 -48 -15 -53 -6
-3 5 5 11 17 13 18 3 17 5 -7 6 -23 1 -27 3 -15 11 13 8 12 10 -2 10 -10 0
-18 -4 -18 -9 0 -14 -126 -7 -143 7 -8 7 -17 9 -20 5 -4 -3 -7 -1 -7 6 0 7 -5
9 -11 5 -7 -4 -10 -1 -7 7 3 8 13 13 23 12 11 -1 14 2 7 9 -7 7 -17 6 -32 -2
-18 -9 -25 -8 -40 5 -10 9 -23 15 -27 12 -5 -3 -9 3 -9 14 0 13 5 18 16 14 8
-3 -1 8 -20 25 -37 31 -50 36 -50 20 0 -5 3 -9 8 -7 4 1 8 -1 10 -5 1 -5 -1
-9 -5 -10 -11 -4 -54 65 -49 78 3 7 0 14 -6 16 -6 2 -13 32 -16 66 -5 69 15
114 71 156 80 61 236 71 342 22z m-3531 -1 c-9 -14 -18 -25 -21 -25 -5 0 5 18
20 38 17 22 18 13 1 -13z m-2223 -7 c11 -21 11 -22 -4 -9 -10 7 -17 17 -17 22
0 15 9 10 21 -13z m3103 -50 c-5 -8 -2 -9 12 -4 10 4 15 4 11 0 -4 -4 -1 -14
6 -22 9 -11 5 -11 -15 2 -23 15 -30 36 -12 36 3 0 2 -5 -2 -12z m-945 -11 c-2
-1 -13 -9 -24 -17 -19 -14 -19 -14 -6 3 7 9 18 17 24 17 6 0 8 -1 6 -3z m1460
-11 c9 -11 9 -16 -1 -22 -7 -4 -10 -4 -6 1 4 4 3 14 -3 22 -6 7 -9 13 -6 13 2
0 10 -6 16 -14z m-1894 -56 c3 -6 -1 -7 -9 -4 -18 7 -21 14 -7 14 6 0 13 -4
16 -10z m248 -27 c-7 -2 -19 -2 -25 0 -7 3 -2 5 12 5 14 0 19 -2 13 -5z m-371
-103 c43 -33 148 -77 213 -89 153 -28 311 11 442 111 l62 47 306 2 305 2 58
-42 c78 -59 140 -89 230 -112 171 -45 366 8 509 139 l32 30 102 -187 c56 -102
119 -219 140 -260 l37 -74 -121 7 c-67 4 -198 11 -292 16 -648 37 -1654 30
-2313 -16 l-94 -7 31 50 c17 28 31 54 31 58 0 4 24 50 54 104 29 53 70 130 91
171 21 41 47 90 57 107 l19 33 37 -34 c20 -19 49 -44 64 -56z m3835 -95 c0 -8
-4 -12 -9 -9 -5 3 -6 10 -3 15 9 13 12 11 12 -6z m-5150 -107 c-3 -8 -6 -5 -6
6 -1 11 2 17 5 13 3 -3 4 -12 1 -19z m5436 -15 c-7 -2 -19 -2 -25 0 -7 3 -2 5
12 5 14 0 19 -2 13 -5z m-5456 -105 c-3 -7 -5 -2 -5 12 0 14 2 19 5 13 2 -7 2
-19 0 -25z m2260 -475 c167 -352 154 -328 166 -307 7 10 60 118 118 239 l106
220 201 0 c110 0 203 -2 205 -5 5 -5 18 -309 37 -885 5 -165 12 -346 15 -403
l6 -103 -178 7 c-98 4 -180 8 -182 10 -2 2 -8 178 -13 391 -5 213 -11 389 -13
392 -5 4 -140 -271 -218 -441 l-36 -78 -49 0 -49 0 -130 266 -130 267 -8 -394
c-5 -280 -10 -396 -18 -401 -7 -4 -85 -8 -174 -8 l-163 0 0 128 c0 138 15 786
26 1080 l6 182 200 0 199 0 76 -157z m1418 126 c210 -14 598 -49 616 -54 12
-4 19 -38 31 -163 9 -86 14 -159 12 -161 -2 -3 -125 8 -272 22 -147 15 -309
31 -361 35 l-94 8 7 -65 c3 -37 6 -84 6 -107 l0 -40 233 -23 c127 -13 244 -25
258 -28 25 -5 25 -6 38 -149 8 -80 11 -148 7 -151 -3 -3 -119 5 -258 19 -139
14 -255 24 -257 22 -9 -8 12 -236 23 -239 6 -1 103 -12 216 -24 113 -12 275
-31 361 -42 l156 -21 21 -147 c12 -80 22 -160 22 -177 l0 -30 -62 7 c-35 5
-130 18 -213 29 -229 32 -524 67 -680 80 -218 18 -205 14 -205 63 0 118 -48
1230 -56 1306 l-6 54 159 -7 c87 -4 221 -11 298 -17z m-2417 -21 c6 -18 38
-127 72 -243 115 -388 318 -1100 315 -1103 -2 -2 -323 -30 -367 -32 -4 0 -15
26 -24 58 -8 31 -26 94 -40 138 l-24 82 -42 -9 c-24 -5 -119 -15 -213 -24
-234 -21 -265 -26 -265 -39 0 -21 -91 -260 -103 -272 -13 -12 -376 -68 -385
-60 -3 3 5 32 17 63 13 32 63 173 113 313 49 140 123 347 163 460 41 113 110
308 155 434 44 126 82 231 84 234 6 5 363 29 463 31 l72 1 9 -32z m3733 -88
c233 -24 413 -64 525 -117 67 -31 177 -123 227 -188 34 -46 102 -174 95 -180
-2 -1 -112 -5 -244 -9 l-242 -7 -6 24 c-17 68 -124 111 -303 124 -107 8 -133
-6 -133 -71 0 -90 50 -120 286 -171 404 -88 489 -120 595 -225 50 -49 71 -79
88 -124 50 -134 71 -427 38 -523 -24 -70 -93 -145 -165 -180 -49 -24 -72 -28
-163 -31 -185 -7 -496 50 -640 117 -122 57 -243 162 -314 274 -29 47 -105 221
-105 242 0 7 435 6 454 -1 9 -3 16 -13 16 -21 0 -30 43 -90 82 -116 41 -26 94
-41 211 -58 163 -23 207 -3 207 93 0 67 -25 110 -80 138 -22 11 -138 43 -258
70 -276 63 -336 81 -414 122 -161 85 -239 234 -242 458 -1 95 2 111 27 165 49
105 125 166 237 191 71 16 96 16 221 4z m-5060 -27 c103 -46 168 -135 190
-258 11 -63 10 -69 -7 -79 -42 -24 -413 -156 -441 -156 -9 0 -6 11 7 33 26 42
25 63 -5 92 -20 21 -34 25 -87 25 -88 0 -242 -27 -286 -49 -60 -30 -94 -81
-106 -156 -10 -63 -36 -442 -36 -525 0 -90 13 -119 62 -143 35 -17 43 -17 153
-2 253 35 317 76 331 213 l7 59 -74 -12 c-41 -7 -96 -15 -123 -19 l-48 -6 6
31 c3 18 9 90 13 160 l6 128 41 6 c108 15 579 75 587 75 9 0 6 -69 -12 -350
-12 -184 -20 -221 -68 -320 -43 -90 -137 -190 -226 -242 -166 -96 -445 -162
-685 -162 -108 0 -133 3 -184 23 -76 30 -148 97 -183 170 -28 55 -28 58 -27
241 1 194 35 605 59 723 39 186 182 345 386 426 215 85 632 127 750 74z m2041
-1640 l3 -148 28 -3 c25 -3 27 -7 27 -48 0 -42 -1 -44 -30 -44 -29 0 -30 -1
-30 -50 l0 -50 -50 0 -50 0 0 51 0 52 -125 -5 -125 -6 0 58 c0 57 2 61 78 167
139 193 115 173 199 173 l72 0 3 -147z m801 45 c3 -13 39 -106 81 -208 42
-101 76 -186 76 -187 0 -2 -20 -3 -44 -3 -42 0 -44 1 -63 48 l-21 49 -83 7
c-46 4 -85 3 -87 -1 -1 -4 -13 -26 -25 -48 -20 -36 -27 -40 -65 -43 -23 -2
-42 1 -42 6 0 5 20 56 44 113 24 57 61 146 81 197 l38 92 52 0 c46 0 53 -3 58
-22z m367 -163 c0 -183 -4 -175 81 -175 20 0 51 -3 68 -6 29 -6 31 -10 31 -47
l0 -40 -72 7 c-40 3 -101 9 -135 12 l-63 6 0 207 0 206 45 -3 45 -4 0 -163z
m408 -43 c2 -86 5 -158 6 -160 2 -1 42 -7 90 -14 l86 -11 0 -38 c0 -22 -4 -39
-10 -39 -20 0 -216 21 -237 26 -23 4 -23 5 -23 199 l0 195 43 0 42 0 3 -158z
m-2729 -27 c19 -33 23 -35 73 -35 l52 0 -26 -27 c-41 -44 -51 -70 -40 -103 13
-35 7 -41 -25 -29 -37 14 -65 11 -93 -11 -37 -29 -43 -25 -36 21 6 38 4 44
-29 74 -19 19 -35 36 -35 38 0 3 21 10 46 16 40 10 48 17 61 51 9 22 19 40 24
40 4 0 16 -16 28 -35z m3261 -47 c12 -16 31 -28 43 -28 12 0 29 -5 37 -10 13
-8 12 -12 -7 -25 -43 -30 -53 -47 -53 -86 0 -42 -12 -48 -44 -24 -23 18 -69
19 -98 4 -28 -15 -32 -6 -20 43 11 41 10 44 -18 73 -17 17 -30 34 -30 38 0 4
16 7 36 7 27 0 43 7 65 31 16 17 29 36 29 43 1 6 9 0 20 -14 10 -14 29 -37 40
-52z m363 -336 c-136 -121 -173 -150 -280 -221 -132 -87 -331 -206 -362 -216
-12 -3 -18 -11 -15 -17 4 -7 2 -8 -4 -4 -6 4 -37 -6 -69 -22 -32 -16 -105 -48
-163 -70 -58 -23 -118 -46 -135 -53 -16 -7 -37 -13 -45 -15 -8 -2 -42 -13 -75
-24 -33 -11 -69 -22 -80 -24 -79 -15 -117 -25 -123 -31 -4 -4 7 -5 23 -3 17 3
24 3 18 1 -7 -3 -13 -8 -13 -13 0 -4 -7 -11 -16 -14 -9 -4 -13 -2 -8 5 5 8 -3
9 -27 3 -19 -5 -61 -9 -94 -8 -52 1 -55 0 -27 -8 17 -5 32 -10 32 -11 0 -2
-25 -3 -56 -3 -36 0 -49 3 -37 8 12 6 8 6 -12 3 -16 -3 -52 -8 -78 -10 -27 -3
-83 -9 -126 -14 -305 -38 -631 -15 -1026 75 -447 101 -910 322 -1209 578 -47
41 -102 88 -123 105 l-38 32 50 -25 c62 -32 180 -76 202 -76 9 0 64 -29 122
-63 536 -321 976 -475 1484 -516 385 -32 827 21 1182 142 253 87 369 143 807
391 65 36 121 65 125 64 12 -3 79 21 157 58 39 18 73 33 76 33 3 0 -14 -16
-37 -37z m-1868 -34 l27 -12 -6 -130 c-4 -72 -9 -168 -12 -213 l-6 -83 -65 0
-65 0 6 78 c29 347 34 372 71 372 13 0 36 -5 50 -12z m-336 -15 c7 -15 23
-127 56 -390 l4 -33 -52 0 c-69 0 -96 8 -95 28 0 10 -3 102 -7 205 -9 208 -9
207 52 207 21 0 36 -6 42 -17z m-676 -21 c7 -7 16 -9 19 -7 3 3 16 -20 28 -52
13 -32 40 -99 62 -149 21 -50 38 -96 38 -101 0 -6 -25 -4 -64 5 -59 14 -66 19
-86 56 l-22 41 28 -30 c20 -22 25 -24 20 -10 -6 22 -73 147 -111 210 -13 22
-24 45 -25 51 0 14 93 2 113 -14z m1668 13 c24 -5 38 -15 21 -15 -7 0 -12 -9
-12 -20 0 -12 -10 -40 -22 -63 -12 -23 -23 -44 -23 -47 -13 -50 -20 -69 -32
-89 -8 -13 -11 -21 -5 -17 17 10 21 -20 7 -41 -9 -13 -36 -24 -76 -32 -33 -7
-63 -11 -65 -9 -3 4 57 170 66 178 3 3 6 12 8 20 1 8 7 24 12 35 4 11 11 27
14 35 8 19 -1 -39 -9 -65 -6 -20 -6 -20 6 0 7 11 21 29 31 39 11 12 15 23 9
29 -6 6 -2 17 10 30 10 11 19 27 19 34 0 8 4 11 10 8 5 -3 20 -8 31 -10z
m-1964 -95 c30 -33 58 -58 63 -55 4 3 27 -20 50 -51 l42 -56 -98 51 c-156 80
-167 88 -154 111 6 11 16 20 23 20 7 0 6 -4 -3 -10 -9 -6 -10 -10 -3 -10 16 0
26 17 14 25 -10 6 -4 35 7 35 3 0 30 -27 59 -60z m1630 5 c10 1 26 -2 36 -7
14 -7 16 -16 11 -46 -12 -63 -50 -212 -57 -218 -12 -13 -155 -31 -152 -20 2 6
15 52 29 101 63 229 52 205 86 195 16 -5 37 -7 47 -5z m-966 -67 c12 -40 30
-102 40 -137 29 -95 29 -94 -43 -86 -35 4 -68 12 -74 18 -11 11 -29 66 -68
209 -9 31 -16 59 -16 62 0 3 31 6 70 6 l69 0 22 -72z m1665 63 c-12 -19 -146
-92 -157 -85 -8 4 -9 3 -5 -4 4 -7 -10 -19 -36 -32 -23 -11 -42 -20 -43 -20
-6 0 -1 41 6 45 5 4 6 -2 2 -12 -6 -15 -4 -16 9 -6 8 7 19 9 24 5 4 -4 2 2 -6
12 -14 18 -14 19 7 7 18 -9 22 -9 18 1 -3 7 4 19 15 26 11 7 20 8 20 2 0 -5 7
-7 16 -3 13 5 13 8 2 15 -9 6 -6 7 10 3 12 -4 22 -2 22 4 0 9 20 19 45 22 6 1
19 8 30 15 23 16 28 18 21 5z m-256 -140 c0 -5 -7 -12 -16 -15 -14 -5 -15 -4
-4 9 14 17 20 19 20 6z m560 -131 c8 -5 11 -10 5 -10 -5 0 -17 5 -25 10 -8 5
-10 10 -5 10 6 0 17 -5 25 -10z m-240 -120 c-8 -5 -22 -9 -30 -9 -10 0 -8 3 5
9 27 12 43 12 25 0z m-450 -160 c-34 -11 -60 -11 -35 0 11 5 29 8 40 8 16 0
15 -2 -5 -8z m-387 -77 c-13 -2 -33 -2 -45 0 -13 2 -3 4 22 4 25 0 35 -2 23
-4z m-80 -10 c-7 -2 -19 -2 -25 0 -7 3 -2 5 12 5 14 0 19 -2 13 -5z m-610 -10
c-7 -2 -21 -2 -30 0 -10 3 -4 5 12 5 17 0 24 -2 18 -5z m444 1 c-3 -3 -12 -4
-19 -1 -8 3 -5 6 6 6 11 1 17 -2 13 -5z m76 -1 c-7 -2 -21 -2 -30 0 -10 3 -4
5 12 5 17 0 24 -2 18 -5z m-325 -10 c-10 -2 -26 -2 -35 0 -10 3 -2 5 17 5 19
0 27 -2 18 -5z"/>
<path d="M3960 7040 c8 -5 20 -10 25 -10 6 0 3 5 -5 10 -8 5 -19 10 -25 10 -5
0 -3 -5 5 -10z"/>
<path d="M6148 7043 c7 -3 16 -2 19 1 4 3 -2 6 -13 5 -11 0 -14 -3 -6 -6z"/>
<path d="M3868 7033 c7 -3 16 -2 19 1 4 3 -2 6 -13 5 -11 0 -14 -3 -6 -6z"/>
<path d="M4008 7033 c7 -3 16 -2 19 1 4 3 -2 6 -13 5 -11 0 -14 -3 -6 -6z"/>
<path d="M4059 7023 c19 -4 21 -7 10 -15 -10 -7 -11 -9 -1 -6 24 6 18 23 -8
25 l-25 1 24 -5z"/>
<path d="M2415 6380 c3 -5 8 -10 11 -10 2 0 4 5 4 10 0 6 -5 10 -11 10 -5 0
-7 -4 -4 -10z"/>
<path d="M7548 6343 c6 -2 18 -2 25 0 6 3 1 5 -13 5 -14 0 -19 -2 -12 -5z"/>
<path d="M7626 5218 c-9 -35 -7 -148 3 -148 5 0 8 38 7 85 0 47 -2 85 -2 85
-1 0 -4 -10 -8 -22z"/>
<path d="M7720 5090 c0 -5 5 -10 11 -10 5 0 7 5 4 10 -3 6 -8 10 -11 10 -2 0
-4 -4 -4 -10z"/>
<path d="M7611 4974 c0 -11 3 -14 6 -6 3 7 2 16 -1 19 -3 4 -6 -2 -5 -13z"/>
<path d="M3616 7571 c-4 -7 -5 -15 -2 -18 9 -9 19 4 14 18 -4 11 -6 11 -12 0z"/>
<path d="M4780 6873 c-28 -27 -97 -92 -153 -147 -56 -54 -121 -111 -144 -127
l-42 -29 -4 47 -3 48 -2 -57 c-2 -69 -17 -112 -36 -105 -28 11 -25 -128 3
-156 9 -9 171 -11 639 -10 345 2 639 5 654 9 23 4 28 12 33 47 4 28 1 57 -10
87 -9 25 -20 82 -25 127 -5 45 -14 90 -20 100 -8 14 -9 9 -5 -24 6 -37 4 -43
-12 -43 -15 0 -16 -2 -3 -10 9 -6 10 -10 3 -10 -6 0 -14 -13 -18 -30 -4 -16
-11 -30 -15 -30 -5 0 -7 6 -4 14 3 8 1 17 -5 20 -6 4 -7 14 -4 24 3 9 2 14 -2
9 -10 -9 -47 22 -39 34 9 15 32 10 37 -8 4 -14 5 -13 6 4 0 12 6 25 11 28 13
8 13 35 1 35 -5 0 -12 -10 -14 -22 -3 -17 -5 -14 -6 10 0 17 4 32 9 32 6 0 6
7 -2 19 -9 15 -7 23 10 42 12 12 22 28 22 35 0 7 7 19 15 28 11 11 12 17 3 22
-8 5 -6 10 8 15 15 6 12 8 -13 8 -44 1 -63 -8 -63 -30 0 -12 -7 -19 -18 -19
-10 0 -28 -10 -40 -22 -12 -13 -33 -34 -47 -48 -15 -14 -33 -38 -41 -55 -8
-16 -12 -21 -9 -10 4 14 -6 7 -33 -20 -21 -22 -60 -59 -86 -83 -25 -24 -44
-47 -41 -53 4 -5 3 -9 -2 -8 -21 4 -35 -3 -68 -33 -22 -19 -39 -27 -43 -21
-13 19 -70 23 -87 6 -9 -8 -18 -13 -21 -10 -3 2 6 14 20 25 14 10 23 22 20 24
-3 3 27 34 66 69 40 36 68 69 65 77 -2 7 1 12 8 10 6 -1 22 3 34 10 16 9 20
19 18 44 -3 28 0 33 20 34 16 1 22 -3 18 -12 -3 -8 -12 -14 -20 -14 -8 0 -11
-5 -8 -10 4 -6 20 1 40 17 29 25 31 29 16 42 -14 12 -14 13 6 8 20 -4 21 -3
12 15 -6 11 -8 22 -5 26 3 3 6 1 6 -5 0 -6 6 -13 13 -16 9 -3 13 2 12 16 -1
14 6 25 19 29 13 5 6 6 -21 5 -59 -3 -54 11 5 16 30 2 18 4 -36 5 l-82 2 -53
-49 c-28 -27 -65 -61 -82 -76 -95 -86 -115 -107 -110 -115 3 -6 -1 -7 -9 -4
-16 6 -23 -10 -8 -19 4 -2 1 -2 -6 -1 -6 2 -31 -17 -55 -43 -23 -25 -57 -52
-74 -60 -18 -7 -33 -18 -33 -24 0 -6 -9 -8 -20 -4 -13 4 -22 1 -26 -9 -3 -9
-10 -16 -15 -16 -6 0 -5 8 1 19 12 24 13 42 1 22 -8 -12 -12 -12 -26 3 -17 16
-16 19 10 46 15 16 24 33 21 38 -4 6 -1 14 5 17 5 4 8 13 5 21 -4 11 -2 12 14
4 21 -11 40 -13 25 -2 -5 4 -19 17 -29 30 -17 19 -17 22 -3 16 9 -3 17 -10 17
-14 0 -4 7 -11 16 -14 8 -3 12 -2 9 3 -7 13 42 61 58 57 6 -1 9 -1 5 1 -5 3
-8 9 -8 15 0 6 -8 17 -17 25 -16 13 -16 13 5 3 27 -13 58 1 67 30 7 21 51 60
68 60 6 0 -16 -25 -47 -56 -32 -30 -56 -57 -54 -59 2 -2 41 32 86 75 45 44 79
80 75 80 -4 0 -18 -10 -31 -22 l-25 -23 6 23 c5 22 4 22 -104 22 l-109 0 -50
-47z m196 -9 c-9 -8 -16 -20 -16 -26 0 -6 -3 -9 -6 -6 -8 9 14 48 27 48 6 0 3
-7 -5 -16z m594 -34 c0 -5 -5 -10 -11 -10 -5 0 -7 5 -4 10 3 6 8 10 11 10 2 0
4 -4 4 -10z m40 -20 c-27 -18 -41 -11 -23 10 12 14 20 17 28 9 7 -7 5 -13 -5
-19z m-81 -7 c-9 -2 -21 -15 -27 -28 -10 -21 -32 -35 -32 -20 0 13 46 55 59
54 14 -1 14 -2 0 -6z m-249 -63 c0 -5 -4 -10 -10 -10 -5 0 -10 5 -10 10 0 6 5
10 10 10 6 0 10 -4 10 -10z m-79 -63 c-10 -9 -11 -8 -5 6 3 10 9 15 12 12 3
-3 0 -11 -7 -18z m339 -52 c-7 -8 -19 -15 -27 -15 -13 0 -13 3 -3 15 7 8 19
15 27 15 13 0 13 -3 3 -15z m-200 -19 c0 -3 -4 -8 -10 -11 -5 -3 -10 -1 -10 4
0 6 5 11 10 11 6 0 10 -2 10 -4z m-30 -36 c0 -5 -4 -10 -10 -10 -5 0 -10 5
-10 10 0 6 5 10 10 10 6 0 10 -4 10 -10z m287 -6 c-3 -3 -12 -4 -19 -1 -8 3
-5 6 6 6 11 1 17 -2 13 -5z m-847 -28 c0 -2 -7 -7 -16 -10 -8 -3 -12 -2 -9 4
6 10 25 14 25 6z m397 -32 c-3 -3 -12 -4 -19 -1 -8 3 -5 6 6 6 11 1 17 -2 13
-5z m-12 -24 c3 -6 -1 -7 -9 -4 -18 7 -21 14 -7 14 6 0 13 -4 16 -10z"/>
<path d="M4880 6715 c-19 -22 -8 -25 13 -3 9 10 13 18 8 18 -5 0 -14 -7 -21
-15z"/>
<path d="M4805 6640 c-3 -6 1 -7 9 -4 18 7 21 14 7 14 -6 0 -13 -4 -16 -10z"/>
<path d="M5118 6543 c6 -2 18 -2 25 0 6 3 1 5 -13 5 -14 0 -19 -2 -12 -5z"/>
<path d="M3228 6603 c7 -3 16 -2 19 1 4 3 -2 6 -13 5 -11 0 -14 -3 -6 -6z"/>
<path d="M3290 6531 c0 -6 4 -13 10 -16 6 -3 7 1 4 9 -7 18 -14 21 -14 7z"/>
<path d="M6080 6521 c0 -5 7 -12 16 -15 14 -5 15 -4 4 9 -14 17 -20 19 -20 6z"/>
<path d="M6140 6465 c13 -14 26 -23 28 -20 7 7 -29 45 -41 45 -6 0 0 -11 13
-25z"/>
<path d="M7806 6067 c3 -10 9 -15 12 -12 3 3 0 11 -7 18 -10 9 -11 8 -5 -6z"/>
<path d="M7870 6036 c0 -2 8 -10 18 -17 15 -13 16 -12 3 4 -13 16 -21 21 -21
13z"/>
<path d="M8072 5967 c-13 -15 -3 -32 20 -33 15 -1 16 2 6 20 -15 29 -14 28
-26 13z"/>
<path d="M7944 5958 c5 -17 -9 -35 -17 -21 -2 5 -2 3 -1 -4 2 -6 -2 -14 -9
-16 -7 -3 0 -4 16 -3 15 2 30 6 35 11 4 4 1 4 -7 0 -10 -6 -13 -4 -9 7 4 8 2
21 -4 29 -8 11 -9 11 -4 -3z"/>
<path d="M8176 5916 c-13 -20 -13 -24 -2 -20 8 3 17 13 20 21 10 26 0 25 -18
-1z"/>
<path d="M2113 5444 c4 -4 -8 -14 -26 -23 -43 -21 -49 -63 -13 -86 28 -19 49
-15 94 19 l32 23 -34 37 c-19 20 -40 36 -47 36 -7 0 -9 -3 -6 -6z"/>
<path d="M1919 5417 c-8 -6 -23 -23 -34 -37 -17 -21 -15 -21 15 5 19 17 37 31
39 33 2 1 2 4 -1 7 -2 3 -11 -1 -19 -8z"/>
<path d="M1848 5333 c-29 -34 -30 -48 -2 -21 15 15 26 30 23 33 -3 3 -13 -3
-21 -12z"/>
<path d="M2063 5224 c-37 -29 -43 -62 -15 -87 19 -17 68 -22 88 -9 39 25 36
90 -5 111 -27 15 -32 14 -68 -15z"/>
<path d="M8171 5456 c17 -18 79 -54 79 -47 0 10 -61 51 -75 51 -5 0 -6 -2 -4
-4z"/>
<path d="M8032 5430 c-28 -23 -28 -57 1 -81 29 -24 46 -24 73 2 21 20 22 24 9
48 -20 40 -55 53 -83 31z"/>
<path d="M7925 5399 c-4 -6 -5 -12 -2 -15 2 -3 7 2 10 11 7 17 1 20 -8 4z"/>
<path d="M7813 5378 c-6 -7 -15 -33 -21 -57 -9 -37 -8 -47 9 -75 l20 -31 -6
60 c-4 35 -2 72 4 88 11 29 9 34 -6 15z"/>
<path d="M7985 5330 c10 -11 20 -20 23 -20 3 0 -3 9 -13 20 -10 11 -20 20 -23
20 -3 0 3 -9 13 -20z"/>
<path d="M8287 5243 c-4 -3 -7 -11 -7 -17 0 -6 5 -5 12 2 6 6 9 14 7 17 -3 3
-9 2 -12 -2z"/>
<path d="M3586 3955 c-49 -135 -86 -249 -82 -252 6 -6 230 12 288 23 23 5 25
8 18 32 -4 15 -33 115 -65 222 -31 107 -60 201 -64 208 -4 7 -44 -90 -95 -233z"/>
<path d="M4533 2772 c-18 -26 -46 -67 -62 -91 -17 -24 -31 -48 -31 -53 0 -5
30 -8 66 -6 l66 3 0 93 c0 52 -2 95 -4 97 -2 2 -17 -18 -35 -43z"/>
<path d="M5387 2671 c-24 -69 -23 -71 29 -71 45 0 46 1 39 27 -10 43 -33 93
-42 93 -5 0 -16 -22 -26 -49z"/>
<path d="M5683 1483 c9 -2 23 -2 30 0 6 3 -1 5 -18 5 -16 0 -22 -2 -12 -5z"/>
<path d="M5882 2110 c-7 -11 -9 -20 -4 -20 10 0 32 22 32 32 0 15 -15 8 -28
-12z"/>
<path d="M3909 2048 c-5 -18 -6 -39 -2 -34 4 3 11 2 17 -4 8 -6 12 -3 12 9 0
12 -5 17 -15 13 -9 -3 -12 -1 -7 6 4 7 5 12 2 12 -3 0 -6 -1 -7 -2z"/>
<path d="M4040 1971 c5 -11 15 -23 21 -27 6 -3 3 5 -6 20 -20 30 -30 35 -15 7z"/>
<path d="M5621 1984 c0 -11 3 -14 6 -6 3 7 2 16 -1 19 -3 4 -6 -2 -5 -13z"/>
<path d="M4602 2000 c0 -14 2 -19 5 -12 2 6 2 18 0 25 -3 6 -5 1 -5 -13z"/>
<path d="M6210 8396 c0 -2 9 -6 20 -9 11 -3 18 -1 14 4 -5 9 -34 13 -34 5z"/>
<path d="M3484 8224 c-18 -14 -18 -14 6 -3 31 14 36 19 24 19 -6 0 -19 -7 -30
-16z"/>
<path d="M6751 8167 c2 -2 18 -11 34 -21 l30 -17 -24 20 c-13 12 -28 21 -34
21 -6 0 -8 -1 -6 -3z"/>
<path d="M7060 7979 c34 -22 64 -38 66 -36 9 9 -86 77 -107 77 -16 0 -6 -11
41 -41z"/>
<path d="M3070 7990 c0 -5 7 -7 15 -4 8 4 15 8 15 10 0 2 -7 4 -15 4 -8 0 -15
-4 -15 -10z"/>
<path d="M7246 7852 c5 -5 34 -28 64 -53 l54 -44 -28 38 c-16 21 -42 45 -57
53 -31 15 -49 19 -33 6z"/>
<path d="M2319 7343 c-13 -16 -12 -17 4 -4 9 7 17 15 17 17 0 8 -8 3 -21 -13z"/>
<path d="M7990 7133 c18 -24 35 -43 37 -43 7 0 -35 56 -54 71 -9 8 -2 -5 17
-28z"/>
<path d="M8160 6917 c0 -9 48 -87 54 -87 2 0 2 8 -1 18 -5 19 -53 82 -53 69z"/>
<path d="M1890 6820 c-6 -11 -9 -26 -7 -33 3 -7 10 1 16 17 14 35 7 47 -9 16z"/>
<path d="M8237 6790 c53 -89 63 -105 63 -98 0 20 -41 96 -61 113 l-23 20 21
-35z"/>
<path d="M8422 6490 c17 -27 33 -50 35 -50 2 0 -4 16 -12 36 -8 20 -15 38 -15
40 0 2 -9 8 -20 14 -16 8 -14 1 12 -40z"/>
<path d="M8652 6020 c0 -19 2 -27 5 -17 2 9 2 25 0 35 -3 9 -5 1 -5 -18z"/>
<path d="M8541 5712 c-12 -17 -21 -38 -20 -49 0 -14 3 -12 10 7 6 13 17 33 26
42 9 10 14 21 11 24 -3 3 -15 -8 -27 -24z"/>
<path d="M8547 5525 c7 -49 13 -58 13 -19 0 16 -5 36 -10 44 -6 10 -7 2 -3
-25z"/>
<path d="M8567 5395 c3 -38 7 -72 9 -74 7 -8 2 84 -6 114 -5 18 -6 2 -3 -40z"/>
<path d="M8577 4996 c-4 -10 -7 -25 -6 -34 0 -11 4 -9 10 7 5 13 8 29 6 35 -2
5 -6 2 -10 -8z"/>
<path d="M8835 2613 c-28 -32 -80 -86 -117 -120 -37 -35 -65 -63 -62 -63 20 0
66 36 103 80 24 29 58 61 75 71 17 10 25 19 18 19 -8 0 -3 13 14 35 40 53 25
42 -31 -22z"/>
<path d="M8405 2305 c-33 -13 -50 -24 -39 -24 21 -1 114 36 114 44 0 8 -12 5
-75 -20z"/>
<path d="M7768 2273 c7 -3 16 -2 19 1 4 3 -2 6 -13 5 -11 0 -14 -3 -6 -6z"/>
<path d="M8190 2250 c-24 -8 -24 -8 5 -9 17 0 37 4 45 9 12 8 11 10 -5 9 -11
-1 -31 -5 -45 -9z"/>
<path d="M8018 2243 c12 -2 30 -2 40 0 9 3 -1 5 -23 4 -22 0 -30 -2 -17 -4z"/>
<path d="M6850 1560 c-9 -6 -10 -10 -3 -10 6 0 15 5 18 10 8 12 4 12 -15 0z"/>
<path d="M3780 1324 c0 -8 75 -35 89 -32 8 2 -9 10 -37 20 -29 9 -52 14 -52
12z"/>
<path d="M4068 1223 c7 -3 16 -2 19 1 4 3 -2 6 -13 5 -11 0 -14 -3 -6 -6z"/>
<path d="M5678 1133 c6 -2 18 -2 25 0 6 3 1 5 -13 5 -14 0 -19 -2 -12 -5z"/>
<path d="M5580 1123 c-19 -3 -39 -8 -43 -12 -4 -4 18 -4 49 0 31 4 58 10 62
13 5 6 -7 6 -68 -1z"/>
<path d="M4598 1113 c7 -3 16 -2 19 1 4 3 -2 6 -13 5 -11 0 -14 -3 -6 -6z"/>
<path d="M5468 1103 c12 -2 30 -2 40 0 9 3 -1 5 -23 4 -22 0 -30 -2 -17 -4z"/>
<path d="M5353 1093 c15 -2 39 -2 55 0 15 2 2 4 -28 4 -30 0 -43 -2 -27 -4z"/>
</g>
</svg>
